<svg width="197" height="142" xmlns="http://www.w3.org/2000/svg" xmlns:xlink="http://www.w3.org/1999/xlink" xml:space="preserve" overflow="hidden"><g transform="translate(-144 -369)"><text fill="#0E2A47" font-family="Arial,Arial_MSFontService,sans-serif" font-weight="700" font-size="100" transform="matrix(0.574506 0 0 0.572742 177.676 448)">E</text><text fill="#0E2A47" font-family="Arial,Arial_MSFontService,sans-serif" font-weight="700" font-size="100" transform="matrix(0.574506 0 0 0.572742 254.958 448)">E</text><text fill="#0E2A47" font-family="Arial,Arial_MSFontService,sans-serif" font-weight="700" font-size="140" transform="matrix(0.574506 0 0 0.572742 205.712 449)">V</text><text fill="#0E2A47" font-family="Arial,Arial_MSFontService,sans-serif" font-weight="700" font-size="99" transform="matrix(0.574506 0 0 0.572742 181.404 496)">WM</text><path d="M19.1582 15.1777 153.18 15.1777" stroke="#E7C22C" stroke-width="6.30017" stroke-miterlimit="10" fill="none" transform="matrix(1.00308 0 0 1 144.033 369)"/><path d="M150.207 12.7034 179.354 129.423" stroke="#E7C22C" stroke-width="6.30017" stroke-miterlimit="10" fill="#0E2A47" transform="matrix(1.00308 0 0 1 144.033 369)"/><path d="M163.489 3.15008 12.4514 3.24745" stroke="#0E2A47" stroke-width="6.30017" stroke-miterlimit="10" fill="#0E2A47" transform="matrix(1.00308 0 0 1 144.033 369)"/><path d="M160.626 0.859113 193.272 132.017" stroke="#0E2A47" stroke-width="6.30017" stroke-miterlimit="10" fill="#0E2A47" transform="matrix(1.00308 0 0 1 144.033 369)"/><path d="M32.7036 138.781 183.741 138.85" stroke="#0E2A47" stroke-width="6.30017" stroke-miterlimit="10" fill="#0E2A47" transform="matrix(1.00308 0 0 1 144.033 369)"/><path d="M35.5616 141.078 3.05844 9.88553" stroke="#0E2A47" stroke-width="6.30017" stroke-miterlimit="10" fill="#0E2A47" transform="matrix(1.00308 0 0 1 144.033 369)"/></g></svg>